<svg aria-hidden="true" width="44" height="44" viewBox="0 0 44 44" fill="none" xmlns="http://www.w3.org/2000/svg" style="background: rgb(47, 49, 64);"><path d="M37.5175 22.0531C37.4579 19.2923 36.6563 16.5985 35.1968 14.2542C33.7374 11.91 31.674 10.0017 29.223 8.72965C26.772 7.45759 24.0238 6.86863 21.2668 7.02455C18.5098 7.18047 15.8456 8.07553 13.5537 9.61582C11.2617 11.1561 9.42659 13.2849 8.24079 15.7787C7.05498 18.2725 6.56222 21.0396 6.81419 23.7895C7.06617 26.5394 8.05359 29.1708 9.67288 31.4076C11.2922 33.6444 13.4836 35.4042 16.0173 36.5023C16.7657 35.3775 17.3385 34.1453 17.716 32.848C18.0245 32.0632 18.3595 31.2913 18.7067 30.5446C19.5444 30.7955 20.4345 30.8143 21.282 30.5989C22.1295 30.3835 22.9026 29.942 23.5188 29.3215L23.5704 29.2699C22.8136 28.9884 21.9979 28.9032 21.1993 29.022C20.4006 29.1408 19.6451 29.4598 19.0029 29.9494C19.4276 29.0613 19.891 28.1997 20.3667 27.3632C21.189 27.6541 22.075 27.7156 22.9296 27.541C23.7842 27.3665 24.5751 26.9626 25.2175 26.3726L25.2692 26.3209C24.538 26.0116 23.7416 25.8885 22.9513 25.9626C22.1609 26.0368 21.4013 26.3058 20.7404 26.7456C21.216 25.9608 21.7053 25.1889 22.2203 24.468C23.0713 24.6915 23.9672 24.6777 24.811 24.4282C25.6547 24.1787 26.414 23.703 27.0066 23.0526L27.0453 23.001C26.3425 22.7718 25.5958 22.7106 24.8651 22.8224C24.1344 22.9341 23.4401 23.2157 22.838 23.6444C22.8767 23.5928 22.9283 23.5289 22.9664 23.4773C23.2749 23.0784 23.5969 22.6796 23.9177 22.2936C24.8969 21.9731 25.7703 21.3916 26.4436 20.6117C27.117 19.8318 27.5649 18.883 27.7391 17.8674L27.752 17.79H27.7391C26.7194 18.0552 25.7944 18.6007 25.0689 19.3648C24.3434 20.1288 23.8464 21.0808 23.6343 22.1129C23.3258 22.4859 23.0167 22.8603 22.7211 23.2449C22.9706 22.5925 23.0724 21.893 23.0191 21.1966C22.9657 20.5002 22.7586 19.8243 22.4126 19.2176L22.3739 19.2692C21.8489 19.9862 21.5326 20.8345 21.4599 21.7201C21.3873 22.6058 21.5611 23.4942 21.9621 24.2872C21.4729 24.9823 20.9972 25.6897 20.5467 26.4357C20.6918 25.6858 20.6542 24.9118 20.4369 24.1795C20.2196 23.4471 19.8291 22.7779 19.2985 22.2284L19.2727 22.2929C18.9445 23.1107 18.8477 24.0031 18.9929 24.8723C19.1382 25.7415 19.5199 26.5539 20.0962 27.2205C19.6457 28.0054 19.2211 28.816 18.8093 29.6524C18.9344 28.8712 18.8712 28.0715 18.6251 27.3196C18.3789 26.5677 17.9568 25.8855 17.3939 25.3295L17.3681 25.3941C17.0745 26.2514 17.0201 27.1724 17.2105 28.0583C17.401 28.9442 17.8292 29.7614 18.4492 30.4223C18.1774 31.0012 17.9219 31.5774 17.6773 32.1849C17.61 32.1231 17.5313 32.0751 17.4456 32.0435C17.0066 31.916 16.5867 31.7299 16.1974 31.4904C15.8754 31.2994 15.5337 31.144 15.1781 31.027C13.7886 30.5765 13.9945 29.9079 13.2756 28.5564C13.0416 28.2781 12.7931 28.0125 12.5309 27.7607C12.2876 27.603 12.0884 27.386 11.9519 27.1302C11.7934 26.8107 11.6931 26.4656 11.6557 26.1109C11.6514 25.9148 11.5858 25.7249 11.4681 25.5679C11.3504 25.4109 11.1864 25.2948 10.9993 25.2358C8.95338 24.5284 9.86728 21.8778 9.94406 21.5299C9.91262 21.08 9.81271 20.6375 9.64781 20.2178C9.63057 20.1632 9.61763 20.1073 9.60908 20.0506C9.55449 19.776 9.56444 19.4924 9.63813 19.2223C9.71183 18.9521 9.84726 18.7028 10.0338 18.4939C10.2784 18.2493 11.1277 17.8505 11.3078 17.6188C11.4879 17.387 11.6163 17.1295 11.797 16.9114C12.3687 16.3412 13.0291 15.8675 13.7526 15.509C14.3444 15.1876 14.4477 14.364 14.6787 14.1065C15.0647 13.6689 15.6565 13.6689 16.0941 13.283C16.3129 13.09 16.6377 12.9867 16.8415 12.7815C17.8692 11.8403 19.1644 11.2423 20.5474 11.0706C21.5064 10.9924 22.4717 11.0795 23.4012 11.3281C23.5358 11.3507 23.669 11.3809 23.8001 11.4185C25.9228 11.4959 28.4709 11.9328 29.397 12.8338C29.8555 13.2744 30.1961 13.8229 30.3877 14.4293C30.5382 14.8988 30.7456 15.3481 31.0054 15.7672L31.5714 16.6933C31.932 17.2773 32.0475 17.9801 31.8928 18.6489C31.7885 18.974 31.7795 19.3223 31.8669 19.6525C32.1655 20.1031 32.5152 20.5177 32.9093 20.8878C33.0658 21.0427 33.2382 21.1807 33.4236 21.2995C33.8592 21.5594 34.2802 21.8429 34.6848 22.1489C34.698 22.2729 34.6775 22.3982 34.6254 22.5115C34.5732 22.6247 34.4914 22.7218 34.3885 22.7924C34.0284 23.1137 33.3333 23.6159 33.3333 23.6159C33.3584 23.758 33.4016 23.8964 33.4617 24.0276C33.5643 24.2077 33.796 24.4911 33.7192 24.735C33.6424 24.9789 33.1403 25.1855 33.2816 25.4552C33.423 25.7386 33.7831 25.8154 33.6805 26.0729C33.5779 26.3175 33.0757 26.7524 33.1274 26.9352C33.179 27.1179 33.5908 28.8377 32.6382 29.1353C31.4592 29.3685 30.2627 29.5019 29.0614 29.5342C28.8675 29.5454 28.6797 29.6055 28.5155 29.709C28.3513 29.8125 28.216 29.956 28.1223 30.126C27.9399 30.4661 27.8222 30.837 27.7751 31.22C27.4275 32.5896 26.9671 33.928 26.3985 35.2215C26.3985 35.2215 26.3597 35.2989 26.3081 35.4144C26.1833 35.6687 26.1048 35.9432 26.0764 36.2251C26.1573 36.4321 26.2799 36.6204 26.4365 36.7782C26.519 36.8726 26.6271 36.9411 26.7477 36.9753C26.8683 37.0096 26.9962 37.0081 27.116 36.9711C30.1997 35.8965 32.8655 33.8757 34.7332 31.197C36.601 28.5182 37.5754 25.3182 37.5175 22.0531Z" fill="#00DACC"></path></svg>