<svg aria-hidden="true" width="44" height="44" viewBox="0 0 44 44" fill="none" xmlns="http://www.w3.org/2000/svg" style="background: linear-gradient(rgb(137, 149, 169) 0%, rgb(66, 77, 95) 99.48%);"><path d="M22.0006 7.292C22.6198 7.29004 23.2271 7.46144 23.754 7.7868C24.2808 8.11216 24.706 8.57848 24.9816 9.133L34.3566 27.883C34.611 28.3912 34.7312 28.956 34.7058 29.5238C34.6805 30.0915 34.5103 30.6433 34.2116 31.1268C33.9129 31.6103 33.4956 32.0094 32.9992 32.2861C32.5028 32.5629 31.9439 32.7081 31.3756 32.708H12.6256C12.0573 32.7079 11.4985 32.5626 11.0023 32.2858C10.506 32.009 10.0888 31.6099 9.79022 31.1264C9.49163 30.6429 9.3216 30.0912 9.29628 29.5235C9.27096 28.9558 9.39119 28.3911 9.64556 27.883L19.0196 9.133C19.2951 8.57848 19.7203 8.11216 20.2472 7.7868C20.774 7.46144 21.3814 7.29004 22.0006 7.292ZM22.0006 5C20.9561 4.9999 19.9322 5.29059 19.0437 5.83952C18.1551 6.38846 17.4369 7.17394 16.9696 8.108L7.59456 26.858C7.16544 27.7156 6.96271 28.6687 7.00564 29.6268C7.04856 30.5848 7.33572 31.516 7.83982 32.3318C8.34392 33.1476 9.04823 33.821 9.88584 34.288C10.7235 34.755 11.6666 35.0001 12.6256 35H31.3756C32.3345 34.9999 33.2775 34.7547 34.1149 34.2876C34.9524 33.8206 35.6566 33.1472 36.1606 32.3314C36.6645 31.5156 36.9516 30.5845 36.9945 29.6265C37.0374 28.6686 36.8346 27.7156 36.4056 26.858L27.0316 8.108C26.5642 7.17394 25.846 6.38846 24.9574 5.83952C24.0689 5.29059 23.045 4.9999 22.0006 5Z" fill="white"></path></svg>