<svg aria-hidden="true" width="44" height="44" viewBox="0 0 44 44" fill="none" xmlns="http://www.w3.org/2000/svg" style="background: linear-gradient(rgb(137, 149, 169) 0%, rgb(66, 77, 95) 99.48%);"><path fill-rule="evenodd" clip-rule="evenodd" d="M23.75 19.3069L23.15 22.5069L28.85 23.3069L28.45 24.8069L22.85 24.0069C22.45 25.3069 22.25 26.7069 21.75 27.9069C21.25 29.3069 20.75 30.7069 20.15 32.0069C19.35 33.7069 17.95 34.9069 16.05 35.2069C14.95 35.4069 13.75 35.3069 12.85 34.6069C12.55 34.4069 12.25 34.0069 12.25 33.7069C12.25 33.3069 12.45 32.8069 12.75 32.6069C12.95 32.5069 13.45 32.6069 13.75 32.7069C14.05 33.0069 14.35 33.4069 14.55 33.8069C15.15 34.6069 15.95 34.7069 16.75 34.1069C17.65 33.3069 18.15 32.2069 18.45 31.1069C19.05 28.7069 19.65 26.4069 20.15 24.0069V23.6069L14.85 22.8069L15.05 21.3069L20.55 22.1069L21.25 19.0069L15.55 18.1069L15.75 16.5069L21.65 17.3069C21.85 16.7069 21.95 16.2069 22.15 15.7069C22.65 13.9069 23.15 12.1069 24.35 10.5069C25.55 8.90687 26.95 7.90687 29.05 8.00687C29.95 8.00687 30.85 8.30687 31.45 9.00687C31.55 9.10687 31.75 9.30687 31.75 9.50687C31.75 9.90687 31.75 10.4069 31.45 10.7069C31.05 11.0069 30.55 10.9069 30.15 10.5069C29.85 10.2069 29.65 9.90687 29.35 9.60687C28.75 8.80687 27.85 8.70687 27.15 9.40687C26.65 9.90687 26.15 10.6069 25.85 11.3069C25.15 13.4069 24.65 15.6069 23.95 17.8069L29.45 18.6069L29.05 20.1069L23.75 19.3069Z" fill="white"></path></svg>