<svg aria-hidden="true" width="44" height="44" viewBox="0 0 44 44" fill="none" xmlns="http://www.w3.org/2000/svg" style="background: linear-gradient(rgb(137, 149, 169) 0%, rgb(66, 77, 95) 99.48%);"><path d="M20.92 9.25864C21.5933 8.91379 22.6178 8.91379 23.2911 9.25864L30.1616 12.7775C30.5671 12.9852 30.7898 13.2947 30.8297 13.6142H30.8363V31.302C30.8274 31.6504 30.6025 31.9966 30.1616 32.2225L23.2911 35.7413C22.6178 36.0862 21.5933 36.0862 20.92 35.7413L14.0495 32.2225C13.6104 31.9976 13.3997 31.6489 13.3893 31.302C13.3883 31.2678 13.3881 31.2393 13.3891 31.2157L13.3891 13.7278C13.3884 13.7086 13.3883 13.6895 13.3889 13.6705L13.3893 13.6142L13.3924 13.6142C13.4229 13.2912 13.6355 12.9896 14.0495 12.7775L20.92 9.25864ZM29.7547 23.4821L23.2911 26.7926C22.6178 27.1374 21.5933 27.1374 20.92 26.7926L14.4706 23.4895V31.2669L20.92 34.5527C21.2842 34.7415 21.6622 34.9254 22.0318 34.9488L22.1056 34.9512C22.4907 34.9524 22.8646 34.7628 23.2438 34.5833L29.7547 31.2387V23.4821ZM11.3214 31.8437C11.3214 32.5212 11.4026 32.9667 11.5639 33.2806C11.6976 33.5407 11.8981 33.7394 12.2643 33.9813L12.2852 33.9951C12.3656 34.0476 12.4541 34.1026 12.5619 34.1672L12.689 34.2427L13.0792 34.4711L12.5195 35.3685L12.0827 35.1126L12.0093 35.0689C11.883 34.9932 11.7783 34.9284 11.6807 34.8645C10.637 34.1822 10.2478 33.4384 10.2401 31.8907L10.24 31.8437H11.3214ZM21.5647 18.7412C21.5147 18.7579 21.4678 18.7772 21.4251 18.7991L14.5546 22.318C14.5474 22.3216 14.5405 22.3253 14.534 22.3289L14.5281 22.3322L14.5389 22.3382L14.5546 22.3464L21.4251 25.8653C21.4678 25.8872 21.5147 25.9065 21.5647 25.9231V18.7412ZM22.6465 18.7412V25.9231C22.6965 25.9065 22.7433 25.8872 22.7861 25.8653L29.6566 22.3464C29.6638 22.3427 29.6707 22.3391 29.6772 22.3355L29.683 22.3322L29.6722 22.3262L29.6566 22.318L22.7861 18.7991C22.7433 18.7772 22.6965 18.7579 22.6465 18.7412ZM29.7547 14.8689L23.5915 18.0256L29.7547 21.1822V14.8689ZM14.4706 14.8763V21.1749L20.6195 18.0256L14.4706 14.8763ZM22.7861 10.1859C22.4288 10.0029 21.7824 10.0029 21.4251 10.1859L14.5546 13.7048C14.5474 13.7085 14.5405 13.7122 14.534 13.7158L14.5281 13.719L14.5389 13.725L14.5546 13.7333L21.4251 17.2522C21.7824 17.4352 22.4288 17.4352 22.7861 17.2522L29.6566 13.7333C29.6638 13.7296 29.6707 13.7259 29.6772 13.7223L29.683 13.719L29.6722 13.7131L29.6566 13.7048L22.7861 10.1859ZM31.7205 9.64552L32.1573 9.90132L32.2307 9.94503C32.357 10.0206 32.4616 10.0856 32.5593 10.1494C33.603 10.8317 33.9922 11.5756 33.9998 13.1231L34 13.1703H32.9186C32.9186 12.4926 32.8373 12.0472 32.6761 11.7334C32.5424 11.4733 32.3419 11.2745 31.9757 11.0327L31.9547 11.0189C31.8744 10.9664 31.7858 10.9113 31.6781 10.8466L31.551 10.7712L31.1608 10.5428L31.7205 9.64552Z" fill="white"></path></svg>