<svg aria-hidden="true" width="44" height="44" viewBox="0 0 44 44" fill="none" xmlns="http://www.w3.org/2000/svg" style="background: rgb(44, 54, 79);"><path d="M25.7948 20.5826L28.2683 16.3854L34.9355 26.7696L34.9386 28.7625L34.9168 15.0491C34.9011 14.7137 34.7231 14.407 34.4391 14.2261L22.4357 7.32182C22.1551 7.1838 21.7989 7.18546 21.5187 7.32618C21.4807 7.34524 21.4453 7.36576 21.4113 7.38835L21.3694 7.41467L9.71816 14.1664L9.67298 14.1871C9.61474 14.2137 9.55609 14.2479 9.50076 14.2872C9.27983 14.4456 9.1331 14.68 9.08564 14.9425C9.07859 14.9823 9.0732 15.023 9.07092 15.064L9.08916 26.239L15.2994 16.6138C16.0811 15.3376 17.7847 14.9262 19.3662 14.9488L21.2221 14.9977L10.2862 32.5356L11.5753 33.2778L22.6422 15.0155L27.5338 14.9977L16.4956 33.7209L21.0955 36.3668L21.6451 36.6827C21.8776 36.7772 22.1516 36.7819 22.386 36.6972L34.5581 29.6433L32.2309 30.9918L25.7948 20.5826ZM26.7384 34.175L22.0925 26.8829L24.9287 22.0702L31.0303 31.6876L26.7384 34.175Z" fill="#2D374B"></path><path d="M22.0924 26.8832L26.7385 34.1751L31.0302 31.6879L24.9286 22.0705L22.0924 26.8832Z" fill="#28A0F0"></path><path d="M34.9387 28.7627L34.9356 26.7698L28.2684 16.3856L25.7949 20.5828L32.2312 30.992L34.5584 29.6435C34.7866 29.4582 34.9248 29.1861 34.9393 28.8926L34.9387 28.7627Z" fill="#28A0F0"></path><path d="M7 30.642L10.2863 32.5356L21.2222 14.9976L19.3663 14.9487C17.785 14.9263 16.0814 15.3375 15.2995 16.6137L9.08927 26.239L7 29.449V30.642V30.642Z" fill="white"></path><path d="M27.534 14.9977L22.6423 15.0155L11.5754 33.2778L15.4437 35.5049L16.4955 33.7209L27.534 14.9977Z" fill="white"></path><path d="M37 14.9723C36.9592 13.9493 36.4052 13.013 35.5377 12.4677L23.377 5.47434C22.5187 5.04223 21.4466 5.04161 20.5868 5.47414C20.4852 5.52533 8.76078 12.3251 8.76078 12.3251C8.5985 12.4029 8.44224 12.4955 8.2953 12.6008C7.52081 13.156 7.0487 14.0186 7 14.9661V29.4492L9.08927 26.2392L9.07103 15.0639C9.07352 15.0231 9.0787 14.9827 9.08575 14.9431C9.133 14.6801 9.27994 14.4457 9.50086 14.2872C9.5562 14.2478 21.4806 7.34517 21.5186 7.32611C21.799 7.18538 22.155 7.18373 22.4356 7.32175L34.439 14.226C34.723 14.4069 34.901 14.7137 34.9167 15.049V28.8921C34.9022 29.1856 34.7862 29.4577 34.558 29.643L32.2308 30.9916L31.03 31.6875L26.7383 34.1747L22.3859 36.6969C22.1515 36.7817 21.8773 36.7769 21.645 36.6824L16.4955 33.7206L15.4435 35.5046L20.0713 38.169C20.2243 38.256 20.3607 38.3331 20.4726 38.3961C20.6458 38.4933 20.764 38.5582 20.8056 38.5785C21.1345 38.7383 21.6077 38.8311 22.0342 38.8311C22.4251 38.8311 22.8064 38.7594 23.1672 38.6181L35.8092 31.2971C36.5347 30.7348 36.9617 29.8869 37 28.9686V14.9723Z" fill="#96BEDC"></path></svg>