<svg aria-hidden="true" width="44" height="44" viewBox="0 0 44 44" fill="none" xmlns="http://www.w3.org/2000/svg" style="background: rgb(232, 65, 66);"><path d="M11.0188 32.1528H15.4825C16.5334 32.1528 17.0589 32.1528 17.5278 32.023C18.042 31.8701 18.511 31.5991 18.9009 31.2261C19.2589 30.885 19.5173 30.4328 20.0269 29.5409L20.0272 29.5404L20.0422 29.5142L25.8314 19.2804C26.3456 18.3821 26.5999 17.93 26.7129 17.4554C26.8372 16.9412 26.8372 16.3988 26.7129 15.8847C26.6007 15.4136 26.3439 14.9648 25.8373 14.0798L25.8258 14.0597L23.56 10.1045C23.0911 9.27958 22.8538 8.86711 22.5543 8.71456C22.2323 8.55071 21.848 8.55071 21.526 8.71456C21.2265 8.86711 20.9892 9.27958 20.5202 10.1045L9.49892 29.5311C9.03561 30.3447 8.80392 30.7517 8.82089 31.0849C8.84349 31.4466 9.02994 31.7743 9.33507 31.9721C9.61756 32.1528 10.0809 32.1528 11.0188 32.1528Z" fill="white"></path><path d="M33.1506 32.1528H26.7547C25.8111 32.1528 25.3365 32.1528 25.0596 31.9721C24.7545 31.7743 24.5681 31.4411 24.5455 31.0794C24.5286 30.7486 24.7621 30.3456 25.2294 29.539L25.2295 29.5388L25.2404 29.5199L28.4328 24.0392C28.9018 23.2313 29.1391 22.8301 29.4329 22.6776C29.7548 22.5137 30.1336 22.5137 30.4555 22.6776C30.7472 22.8261 30.9744 23.2102 31.4241 23.9708L31.4248 23.9719L31.4613 24.0336L34.665 29.5143C34.6806 29.5413 34.696 29.5678 34.7113 29.5939L34.7113 29.594C35.1554 30.3603 35.382 30.7514 35.3657 31.0739C35.3486 31.4353 35.1566 31.7688 34.8515 31.9666C34.5689 32.1528 34.0942 32.1528 33.1506 32.1528Z" fill="white"></path></svg>