<svg aria-hidden="true" width="44" height="44" viewBox="0 0 44 44" fill="none" xmlns="http://www.w3.org/2000/svg" style="background: linear-gradient(rgb(137, 149, 169) 0%, rgb(66, 77, 95) 99.48%);"><path d="M23.7136 6.875V14.3784L30.2284 10.6315L23.7136 6.875Z" fill="white"></path><path opacity="0.9" d="M30.2284 10.6316V18.135L36.7418 14.3785L30.2284 10.6316Z" fill="white"></path><path opacity="0.8" d="M23.7136 14.3784V21.8818L30.2284 18.1349L23.7136 14.3784ZM30.2284 18.1349V25.6383L36.7417 21.8818L30.2284 18.1349Z" fill="white"></path><path opacity="0.8" d="M23.7136 21.8817V29.385L30.2284 25.6382L23.7136 21.8817Z" fill="white"></path><path d="M30.2284 25.6382V33.1416L36.7418 29.3851L30.2284 25.6382Z" fill="white"></path><path opacity="0.4" d="M6.87537 14.1253V21.6287L13.3901 17.8722L6.87537 14.1253Z" fill="white"></path><path opacity="0.2" d="M15.0938 16.9153V24.4186L21.5975 20.6718L15.0938 16.9153Z" fill="white"></path><path opacity="0.3" d="M10.2648 21.6604V29.1638L16.7781 25.4073L10.2648 21.6604Z" fill="white"></path><path opacity="0.9" d="M14.5575 27.3226V34.826L21.0612 31.0695L14.5575 27.3226Z" fill="white"></path><path opacity="0.7" d="M23.66 30.5525V38.0572L30.1637 34.2993L23.66 30.5525Z" fill="white"></path><path opacity="0.9" d="M16.1786 13.2097V20.7145L22.6824 16.9676L16.1786 13.2097Z" fill="white"></path><path opacity="0.8" d="M23.7136 6.875V14.3784L17.1989 10.6315L23.7136 6.875Z" fill="white"></path><path opacity="0.6" d="M16.1786 10.0649V17.5669L9.66248 13.8104L16.1786 10.0649Z" fill="white"></path><path opacity="0.6" d="M22.6934 13.7775V21.2823L16.1786 17.5244L22.6934 13.7775Z" fill="white"></path><path opacity="0.95" d="M15.0635 16.9153V24.4186L8.54877 20.6718L15.0635 16.9153Z" fill="white"></path><path opacity="0.6" d="M23.7136 21.8817V29.385L17.2099 25.6382L23.7136 21.8817Z" fill="white"></path><path opacity="0.55" d="M10.2648 23.6295V31.1328L3.75 27.375L10.2648 23.6295Z" fill="white"></path><path d="M36.7418 14.3784V21.8818L30.2284 18.1349L36.7418 14.3784Z" fill="white"></path><path opacity="0.95" d="M30.2284 18.1362V25.6382L23.7136 21.8817L30.2284 18.1362Z" fill="white"></path><path opacity="0.9" d="M36.7418 21.8817V29.385L30.2284 25.6382L36.7418 21.8817Z" fill="white"></path><path opacity="0.7" d="M30.2284 25.6382V33.1416L23.7136 29.3851L30.2284 25.6382Z" fill="white"></path><path opacity="0.4" d="M22.2712 28.7651V36.2684L15.7579 32.5216L22.2712 28.7651Z" fill="white"></path><path d="M30.2284 10.6316V18.135L23.7136 14.3785L30.2284 10.6316Z" fill="white"></path></svg>