<svg aria-hidden="true" width="44" height="44" viewBox="0 0 44 44" fill="none" xmlns="http://www.w3.org/2000/svg" style="background: rgb(22, 24, 26);"><path d="M16.0445 19.6063L21.8705 13.7805L27.6996 19.6093L31.0896 16.2193L21.8705 7L12.6545 16.2163L16.0445 19.6063Z" fill="#F3BA2F"></path><path d="M13.6505 21.9995L10.2606 18.6096L6.87046 21.9997L10.2604 25.3896L13.6505 21.9995Z" fill="#F3BA2F"></path><path d="M16.0445 24.3937L21.8705 30.2195L27.6994 24.3909L31.0913 27.779L31.0896 27.7809L21.8705 37L12.6542 27.7839L12.6495 27.7792L16.0445 24.3937Z" fill="#F3BA2F"></path><path d="M33.4808 25.3911L36.8709 22.001L33.481 18.6111L30.0909 22.0012L33.4808 25.3911Z" fill="#F3BA2F"></path><path d="M25.3091 21.9982H25.3105L21.8705 18.5582L19.3283 21.1004H19.3281L19.0362 21.3926L18.4336 21.9951L18.4289 21.9999L18.4336 22.0048L21.8705 25.4418L25.3105 22.0018L25.3122 21.9999L25.3091 21.9982Z" fill="#F3BA2F"></path></svg>