<svg aria-hidden="true" width="44" height="44" viewBox="0 0 44 44" fill="none" xmlns="http://www.w3.org/2000/svg" style="background: rgb(45, 42, 37);"><path d="M18.4916 12.6668C12.9416 14.806 12.4332 20.2846 10.8418 22.8432C9.23155 25.4322 5.54251 26.8607 6.04698 28.1801C6.55143 29.4994 10.2449 28.0824 13.1669 28.9242C16.0543 29.7561 20.0831 33.4862 25.633 31.3469C28.4603 30.2573 30.5076 28.0143 31.449 25.3574C31.5502 25.0723 31.361 24.7673 31.0606 24.7391C30.874 24.7215 30.6948 24.8196 30.6106 24.9877C29.759 26.6908 28.2981 28.0934 26.3864 28.8301C23.2303 30.0465 19.777 29.0915 17.6562 26.6961C17.1746 26.1522 16.7626 25.533 16.4374 24.8487C16.348 24.6603 16.2629 24.4689 16.1875 24.2708C16.1117 24.0728 16.0473 23.8735 15.9881 23.6732C17.6562 22.8925 19.5812 22.0656 21.7635 21.2246C23.903 20.3999 25.8505 19.731 27.5841 19.1958C28.7571 18.8341 29.8322 18.5331 30.8029 18.2871C30.8732 18.2695 30.9423 18.2519 31.0112 18.2347C31.158 18.1982 31.3088 18.2769 31.363 18.4186L31.364 18.4213C31.396 18.5053 31.4236 18.5898 31.4535 18.6743C31.6453 19.2196 31.7892 19.7706 31.8841 20.3229C31.9258 20.5645 32.1888 20.6961 32.4044 20.5799C33.2014 20.1504 33.9302 19.7314 34.5814 19.3283C37.0083 17.8276 38.3538 16.5549 38.0776 15.8336C37.802 15.1119 35.9541 15.0705 33.1503 15.5854C32.2593 15.7491 31.2716 15.9691 30.207 16.2416C30.0229 16.2886 29.8365 16.3375 29.6481 16.3877C28.7522 16.6262 27.8073 16.8995 26.8234 17.2053C24.9936 17.7744 23.0305 18.4561 21.0038 19.2372C19.1078 19.9682 17.3109 20.726 15.6629 21.4812C15.6428 18.2761 17.5725 15.2461 20.7286 14.0297C22.6399 13.293 24.6605 13.3533 26.4285 14.0473C26.6029 14.116 26.8015 14.0684 26.9291 13.9298C27.1331 13.7076 27.0706 13.3537 26.8053 13.2094C24.3353 11.8685 21.319 11.5771 18.4916 12.6668Z" fill="#FAF1E4"></path></svg>